<mxfile host="Electron" modified="2024-01-09T11:35:19.839Z" agent="Mozilla/5.0 (Windows NT 10.0; Win64; x64) AppleWebKit/537.36 (KHTML, like Gecko) draw.io/22.1.2 Chrome/114.0.5735.289 Electron/25.9.4 Safari/537.36" etag="FEu6UeAMCikJDo2WEIKw" version="22.1.2" type="device">
  <diagram name="Pagina-1" id="KrAMYKN802Sa1sQlcGRf">
    <mxGraphModel dx="674" dy="390" grid="1" gridSize="10" guides="1" tooltips="1" connect="1" arrows="1" fold="1" page="1" pageScale="1" pageWidth="827" pageHeight="1169" math="0" shadow="0">
      <root>
        <mxCell id="0" />
        <mxCell id="1" parent="0" />
        <mxCell id="X-2cT9AtNMiIcICBBnYA-75" value="" style="rounded=0;whiteSpace=wrap;html=1;strokeColor=none;" parent="1" vertex="1">
          <mxGeometry x="200" y="280" width="640" height="250" as="geometry" />
        </mxCell>
        <mxCell id="X-2cT9AtNMiIcICBBnYA-1" value="" style="endArrow=classic;html=1;rounded=0;" parent="1" edge="1">
          <mxGeometry width="50" height="50" relative="1" as="geometry">
            <mxPoint x="320" y="360" as="sourcePoint" />
            <mxPoint x="730" y="360" as="targetPoint" />
          </mxGeometry>
        </mxCell>
        <mxCell id="X-2cT9AtNMiIcICBBnYA-3" value="a" style="rhombus;whiteSpace=wrap;html=1;" parent="1" vertex="1">
          <mxGeometry x="340" y="310" width="40" height="40" as="geometry" />
        </mxCell>
        <mxCell id="X-2cT9AtNMiIcICBBnYA-4" value="b" style="rhombus;whiteSpace=wrap;html=1;" parent="1" vertex="1">
          <mxGeometry x="420" y="310" width="40" height="40" as="geometry" />
        </mxCell>
        <mxCell id="X-2cT9AtNMiIcICBBnYA-5" value="c" style="rhombus;whiteSpace=wrap;html=1;" parent="1" vertex="1">
          <mxGeometry x="500" y="310" width="40" height="40" as="geometry" />
        </mxCell>
        <mxCell id="X-2cT9AtNMiIcICBBnYA-6" value="d" style="rhombus;whiteSpace=wrap;html=1;" parent="1" vertex="1">
          <mxGeometry x="580" y="310" width="40" height="40" as="geometry" />
        </mxCell>
        <mxCell id="X-2cT9AtNMiIcICBBnYA-7" value="e" style="rhombus;whiteSpace=wrap;html=1;" parent="1" vertex="1">
          <mxGeometry x="660" y="310" width="40" height="40" as="geometry" />
        </mxCell>
        <mxCell id="X-2cT9AtNMiIcICBBnYA-8" value="" style="endArrow=classic;html=1;rounded=0;" parent="1" edge="1">
          <mxGeometry width="50" height="50" relative="1" as="geometry">
            <mxPoint x="320" y="480" as="sourcePoint" />
            <mxPoint x="730" y="480" as="targetPoint" />
          </mxGeometry>
        </mxCell>
        <mxCell id="X-2cT9AtNMiIcICBBnYA-26" value="" style="endArrow=none;html=1;rounded=0;" parent="1" edge="1">
          <mxGeometry width="50" height="50" relative="1" as="geometry">
            <mxPoint x="359.9" y="364" as="sourcePoint" />
            <mxPoint x="359.9" y="356" as="targetPoint" />
          </mxGeometry>
        </mxCell>
        <mxCell id="X-2cT9AtNMiIcICBBnYA-27" value="" style="endArrow=none;html=1;rounded=0;" parent="1" edge="1">
          <mxGeometry width="50" height="50" relative="1" as="geometry">
            <mxPoint x="439.9" y="364" as="sourcePoint" />
            <mxPoint x="439.9" y="356" as="targetPoint" />
          </mxGeometry>
        </mxCell>
        <mxCell id="X-2cT9AtNMiIcICBBnYA-28" value="" style="endArrow=none;html=1;rounded=0;" parent="1" edge="1">
          <mxGeometry width="50" height="50" relative="1" as="geometry">
            <mxPoint x="519.9" y="364" as="sourcePoint" />
            <mxPoint x="519.9" y="356" as="targetPoint" />
          </mxGeometry>
        </mxCell>
        <mxCell id="X-2cT9AtNMiIcICBBnYA-29" value="" style="endArrow=none;html=1;rounded=0;" parent="1" edge="1">
          <mxGeometry width="50" height="50" relative="1" as="geometry">
            <mxPoint x="599.9" y="364" as="sourcePoint" />
            <mxPoint x="599.9" y="356" as="targetPoint" />
          </mxGeometry>
        </mxCell>
        <mxCell id="X-2cT9AtNMiIcICBBnYA-30" value="" style="endArrow=none;html=1;rounded=0;" parent="1" edge="1">
          <mxGeometry width="50" height="50" relative="1" as="geometry">
            <mxPoint x="679.9" y="364" as="sourcePoint" />
            <mxPoint x="679.9" y="356" as="targetPoint" />
          </mxGeometry>
        </mxCell>
        <mxCell id="X-2cT9AtNMiIcICBBnYA-31" value="" style="endArrow=none;html=1;rounded=0;" parent="1" edge="1">
          <mxGeometry width="50" height="50" relative="1" as="geometry">
            <mxPoint x="359.92999999999995" y="484" as="sourcePoint" />
            <mxPoint x="359.92999999999995" y="476" as="targetPoint" />
          </mxGeometry>
        </mxCell>
        <mxCell id="X-2cT9AtNMiIcICBBnYA-32" value="" style="endArrow=none;html=1;rounded=0;" parent="1" edge="1">
          <mxGeometry width="50" height="50" relative="1" as="geometry">
            <mxPoint x="439.92999999999995" y="484" as="sourcePoint" />
            <mxPoint x="439.92999999999995" y="476" as="targetPoint" />
          </mxGeometry>
        </mxCell>
        <mxCell id="X-2cT9AtNMiIcICBBnYA-33" value="" style="endArrow=none;html=1;rounded=0;" parent="1" edge="1">
          <mxGeometry width="50" height="50" relative="1" as="geometry">
            <mxPoint x="519.93" y="484" as="sourcePoint" />
            <mxPoint x="519.93" y="476" as="targetPoint" />
          </mxGeometry>
        </mxCell>
        <mxCell id="X-2cT9AtNMiIcICBBnYA-34" value="" style="endArrow=none;html=1;rounded=0;" parent="1" edge="1">
          <mxGeometry width="50" height="50" relative="1" as="geometry">
            <mxPoint x="599.93" y="484" as="sourcePoint" />
            <mxPoint x="599.93" y="476" as="targetPoint" />
          </mxGeometry>
        </mxCell>
        <mxCell id="X-2cT9AtNMiIcICBBnYA-35" value="" style="endArrow=none;html=1;rounded=0;" parent="1" edge="1">
          <mxGeometry width="50" height="50" relative="1" as="geometry">
            <mxPoint x="679.93" y="484" as="sourcePoint" />
            <mxPoint x="679.93" y="476" as="targetPoint" />
          </mxGeometry>
        </mxCell>
        <mxCell id="X-2cT9AtNMiIcICBBnYA-36" value="time" style="text;html=1;align=center;verticalAlign=middle;resizable=0;points=[];autosize=1;strokeColor=none;fillColor=none;" parent="1" vertex="1">
          <mxGeometry x="725" y="345" width="50" height="30" as="geometry" />
        </mxCell>
        <mxCell id="X-2cT9AtNMiIcICBBnYA-37" value="time" style="text;html=1;align=center;verticalAlign=middle;resizable=0;points=[];autosize=1;strokeColor=none;fillColor=none;" parent="1" vertex="1">
          <mxGeometry x="725" y="465" width="50" height="30" as="geometry" />
        </mxCell>
        <mxCell id="X-2cT9AtNMiIcICBBnYA-72" value="s" style="text;html=1;align=center;verticalAlign=middle;resizable=0;points=[];autosize=1;strokeColor=none;fillColor=none;" parent="1" vertex="1">
          <mxGeometry x="291" y="345" width="30" height="30" as="geometry" />
        </mxCell>
        <mxCell id="X-2cT9AtNMiIcICBBnYA-73" value="zipWithTime(s)" style="text;html=1;align=center;verticalAlign=middle;resizable=0;points=[];autosize=1;strokeColor=none;fillColor=none;" parent="1" vertex="1">
          <mxGeometry x="220" y="465" width="100" height="30" as="geometry" />
        </mxCell>
        <mxCell id="X-2cT9AtNMiIcICBBnYA-167" value="" style="rounded=0;whiteSpace=wrap;html=1;" parent="1" vertex="1">
          <mxGeometry x="330" y="430" width="60" height="40" as="geometry" />
        </mxCell>
        <mxCell id="X-2cT9AtNMiIcICBBnYA-168" value="a" style="rhombus;whiteSpace=wrap;html=1;" parent="1" vertex="1">
          <mxGeometry x="332" y="440" width="20" height="20" as="geometry" />
        </mxCell>
        <mxCell id="X-2cT9AtNMiIcICBBnYA-169" value="0ns" style="ellipse;whiteSpace=wrap;html=1;" parent="1" vertex="1">
          <mxGeometry x="353" y="440" width="35" height="20" as="geometry" />
        </mxCell>
        <mxCell id="X-2cT9AtNMiIcICBBnYA-183" value="0ns" style="text;html=1;align=center;verticalAlign=middle;resizable=0;points=[];autosize=1;strokeColor=none;fillColor=none;" parent="1" vertex="1">
          <mxGeometry x="340" y="358" width="40" height="30" as="geometry" />
        </mxCell>
        <mxCell id="X-2cT9AtNMiIcICBBnYA-184" value="20ns" style="text;html=1;align=center;verticalAlign=middle;resizable=0;points=[];autosize=1;strokeColor=none;fillColor=none;" parent="1" vertex="1">
          <mxGeometry x="415" y="358" width="50" height="30" as="geometry" />
        </mxCell>
        <mxCell id="X-2cT9AtNMiIcICBBnYA-185" value="50ns" style="text;html=1;align=center;verticalAlign=middle;resizable=0;points=[];autosize=1;strokeColor=none;fillColor=none;" parent="1" vertex="1">
          <mxGeometry x="495" y="358" width="50" height="30" as="geometry" />
        </mxCell>
        <mxCell id="X-2cT9AtNMiIcICBBnYA-186" value="60ns" style="text;html=1;align=center;verticalAlign=middle;resizable=0;points=[];autosize=1;strokeColor=none;fillColor=none;" parent="1" vertex="1">
          <mxGeometry x="575" y="358" width="50" height="30" as="geometry" />
        </mxCell>
        <mxCell id="X-2cT9AtNMiIcICBBnYA-187" value="80ns" style="text;html=1;align=center;verticalAlign=middle;resizable=0;points=[];autosize=1;strokeColor=none;fillColor=none;" parent="1" vertex="1">
          <mxGeometry x="655" y="358" width="50" height="30" as="geometry" />
        </mxCell>
        <mxCell id="stCMNaJYnmXXw21uTqAm-1" value="0ns" style="text;html=1;align=center;verticalAlign=middle;resizable=0;points=[];autosize=1;strokeColor=none;fillColor=none;" parent="1" vertex="1">
          <mxGeometry x="337.5" y="478" width="40" height="30" as="geometry" />
        </mxCell>
        <mxCell id="stCMNaJYnmXXw21uTqAm-2" value="20ns" style="text;html=1;align=center;verticalAlign=middle;resizable=0;points=[];autosize=1;strokeColor=none;fillColor=none;" parent="1" vertex="1">
          <mxGeometry x="412.5" y="478" width="50" height="30" as="geometry" />
        </mxCell>
        <mxCell id="stCMNaJYnmXXw21uTqAm-3" value="50ns" style="text;html=1;align=center;verticalAlign=middle;resizable=0;points=[];autosize=1;strokeColor=none;fillColor=none;" parent="1" vertex="1">
          <mxGeometry x="492.5" y="478" width="50" height="30" as="geometry" />
        </mxCell>
        <mxCell id="stCMNaJYnmXXw21uTqAm-4" value="60ns" style="text;html=1;align=center;verticalAlign=middle;resizable=0;points=[];autosize=1;strokeColor=none;fillColor=none;" parent="1" vertex="1">
          <mxGeometry x="572.5" y="478" width="50" height="30" as="geometry" />
        </mxCell>
        <mxCell id="stCMNaJYnmXXw21uTqAm-5" value="80ns" style="text;html=1;align=center;verticalAlign=middle;resizable=0;points=[];autosize=1;strokeColor=none;fillColor=none;" parent="1" vertex="1">
          <mxGeometry x="652.5" y="478" width="50" height="30" as="geometry" />
        </mxCell>
        <mxCell id="stCMNaJYnmXXw21uTqAm-6" value="" style="rounded=0;whiteSpace=wrap;html=1;" parent="1" vertex="1">
          <mxGeometry x="410" y="430" width="60" height="40" as="geometry" />
        </mxCell>
        <mxCell id="stCMNaJYnmXXw21uTqAm-7" value="b" style="rhombus;whiteSpace=wrap;html=1;" parent="1" vertex="1">
          <mxGeometry x="412" y="440" width="20" height="20" as="geometry" />
        </mxCell>
        <mxCell id="stCMNaJYnmXXw21uTqAm-8" value="20ns" style="ellipse;whiteSpace=wrap;html=1;" parent="1" vertex="1">
          <mxGeometry x="433" y="440" width="35" height="20" as="geometry" />
        </mxCell>
        <mxCell id="stCMNaJYnmXXw21uTqAm-9" value="" style="rounded=0;whiteSpace=wrap;html=1;" parent="1" vertex="1">
          <mxGeometry x="490" y="430" width="60" height="40" as="geometry" />
        </mxCell>
        <mxCell id="stCMNaJYnmXXw21uTqAm-10" value="c" style="rhombus;whiteSpace=wrap;html=1;" parent="1" vertex="1">
          <mxGeometry x="492" y="440" width="20" height="20" as="geometry" />
        </mxCell>
        <mxCell id="stCMNaJYnmXXw21uTqAm-11" value="50ns" style="ellipse;whiteSpace=wrap;html=1;" parent="1" vertex="1">
          <mxGeometry x="513" y="440" width="35" height="20" as="geometry" />
        </mxCell>
        <mxCell id="stCMNaJYnmXXw21uTqAm-12" value="" style="rounded=0;whiteSpace=wrap;html=1;" parent="1" vertex="1">
          <mxGeometry x="570" y="430" width="60" height="40" as="geometry" />
        </mxCell>
        <mxCell id="stCMNaJYnmXXw21uTqAm-13" value="d" style="rhombus;whiteSpace=wrap;html=1;" parent="1" vertex="1">
          <mxGeometry x="572" y="440" width="20" height="20" as="geometry" />
        </mxCell>
        <mxCell id="stCMNaJYnmXXw21uTqAm-14" value="60ns" style="ellipse;whiteSpace=wrap;html=1;" parent="1" vertex="1">
          <mxGeometry x="593" y="440" width="35" height="20" as="geometry" />
        </mxCell>
        <mxCell id="stCMNaJYnmXXw21uTqAm-15" value="" style="rounded=0;whiteSpace=wrap;html=1;" parent="1" vertex="1">
          <mxGeometry x="650" y="430" width="60" height="40" as="geometry" />
        </mxCell>
        <mxCell id="stCMNaJYnmXXw21uTqAm-16" value="e" style="rhombus;whiteSpace=wrap;html=1;" parent="1" vertex="1">
          <mxGeometry x="652" y="440" width="20" height="20" as="geometry" />
        </mxCell>
        <mxCell id="stCMNaJYnmXXw21uTqAm-17" value="80ns" style="ellipse;whiteSpace=wrap;html=1;" parent="1" vertex="1">
          <mxGeometry x="673" y="440" width="35" height="20" as="geometry" />
        </mxCell>
      </root>
    </mxGraphModel>
  </diagram>
</mxfile>
